#!OML:ASF E:\Steps\Project 1\Capture day 1\Session 2\Subject.ASF
:FULLY-SPECIFIED
:DEGREES
321
root 9.29915 19.2563 19.4591 -146.442 -27.2785 -182.783
lowerback -27.2757 -0.0511911 -3.98211
upperback -4.61019 0.426311 -2.09093
thorax 9.93228 -0.277072 0.0299505
lowerneck 12.6969 1.67684 -10.8115
upperneck -26.6323 1.89213 12.1332
head -10.8543 0.0381028 6.18831
rclavicle -1.69961e-014 3.53837e-014
rhumerus -23.0455 25.8458 -72.0706
rradius 65.184
rwrist -3.81859
rhand -7.02307 -47.5962
rfingers 7.12502
rthumb 18.8486 -76.703
lclavicle -1.69961e-014 3.53837e-014
lhumerus -22.4418 -35.9326 74.1144
lradius 66.944
lwrist -5.94944
lhand -27.3448 -24.5607
lfingers 7.12502
lthumb -0.753068 5.4177
rfemur -28.0662 9.44086 13.6201
rtibia 1.82759
rfoot 18.3454 -36.8841
rtoes 5.71105
lfemur -37.0446 -6.59833 -16.0872
ltibia 5.60574
lfoot 36.1414 14.2615
ltoes -36.4162
322
root 9.27004 19.6475 19.3876 -144.811 -29.5705 -183.18
lowerback -29.3045 -0.292794 -3.74005
upperback -5.13843 -0.00735854 -2.24519
thorax 10.3649 -0.537315 -0.467594
lowerneck 13.3662 1.6261 -10.7766
upperneck -26.3786 1.84889 12.1932
head -10.887 0.0255553 6.20075
rclavicle 1.50082e-014 -2.10712e-014
rhumerus -25.3931 25.5043 -74.0335
rradius 63.9756
rwrist -3.74876
rhand -7.08501 -46.6577
rfingers 7.12502
rthumb 18.7891 -75.7703
lclavicle 1.50082e-014 -2.10712e-014
lhumerus -23.2753 -35.5048 75.4902
lradius 66.1387
lwrist -6.33875
lhand -26.827 -24.6911
lfingers 7.12502
lthumb -0.253012 5.28846
rfemur -28.8243 9.10752 13.3733
rtibia 1.05083
rfoot 14.6319 -38.2555
rtoes 4.30073
lfemur -38.6905 -4.40419 -17.6013
ltibia 6.2471
lfoot 32.8716 12.6571
ltoes -40.603
323
root 9.2351 20.0304 19.3554 -143.221 -32.0172 -183.491
lowerback -31.0388 -0.456362 -3.22697
upperback -5.53473 -0.419955 -2.32597
thorax 10.7726 -0.763295 -1.04899
lowerneck 13.7912 1.57765 -10.8417
upperneck -26.1227 1.80031 12.2923
head -10.8701 0.014443 6.24378
rclavicle -2.23633e-014 2.0276e-014
rhumerus -27.1283 24.6982 -75.4198
rradius 62.8608
rwrist -2.78853
rhand -5.25228 -46.4609
rfingers 7.12502
rthumb 20.551 -75.3931
lclavicle -2.23633e-014 2.0276e-014
lhumerus -23.7932 -35.4088 76.729
lradius 65.6208
lwrist -6.13382
lhand -26.4385 -25.4824
lfingers 7.12502
lthumb 0.122238 4.4973
rfemur -30.2287 6.17643 14.4378
rtibia 1.86604
rfoot 13.3878 -35.8701
rtoes -2.76658
lfemur -40.7104 -3.40456 -18.5462
ltibia 7.80105
lfoot 31.7516 12.8791
ltoes -39.3445
324
root 9.20594 20.402 19.3513 -142.238 -34.3231 -183.833
lowerback -32.0062 -0.591048 -2.87215
upperback -5.43732 -0.746696 -2.35834
thorax 10.5045 -0.949878 -1.34054
lowerneck 14.1832 1.57734 -11.0825
upperneck -25.8521 1.80049 12.4917
head -10.8505 0.030983 6.34989
rclavicle 2.21645e-014 -4.81059e-014
rhumerus -28.653 23.7773 -76.3573
rradius 61.7567
rwrist -1.48368
rhand -4.49329 -45.7181
rfingers 7.12502
rthumb 21.2802 -74.5699
lclavicle 2.21645e-014 -4.81059e-014
lhumerus -24.4534 -35.2735 78.2218
lradius 65.3658
lwrist -6.38716
lhand -27.9074 -24.5632
lfingers 7.12502
lthumb -1.29648 5.41265
rfemur -31.4736 2.79152 15.8395
rtibia 3.82836
rfoot 16.9418 -33.3133
rtoes -1.90278
lfemur -42.1233 -2.90165 -19.3491
ltibia 9.67808
lfoot 33.9618 12.4851
ltoes -40.1547
325
root 9.18895 20.7586 19.3646 -142.145 -36.3074 -184.177
lowerback -31.7352 -0.684257 -2.67844
upperback -5.19853 -0.861226 -2.27417
thorax 10.6628 -0.962273 -1.39176
lowerneck 13.8303 1.48117 -11.435
upperneck -25.5895 1.67735 12.7415
head -10.6672 -0.00451548 6.49921
rclavicle -4.42296e-014 9.58142e-014
rhumerus -29.4586 23.0916 -76.9077
rradius 61.0601
rwrist -3.02382
rhand -5.3158 -44.9493
rfingers 7.12502
rthumb 20.49 -73.8881
lclavicle -4.42296e-014 9.58142e-014
lhumerus -23.3495 -34.7571 79.2428
lradius 64.0793
lwrist -7.33069
lhand -27.7963 -24.9169
lfingers 7.12502
lthumb -1.18916 5.05956
rfemur -32.2265 -0.280357 17.169
rtibia 6.80466
rfoot 20.5109 -29.768
rtoes -2.35645
lfemur -42.5853 -2.24942 -20.2756
ltibia 11.7356
lfoot 35.9527 10.3749
ltoes -43.5081
326
root 9.18194 21.0987 19.3926 -142.911 -38.1001 -184.438
lowerback -30.1562 -0.594806 -2.32762
upperback -5.38159 -0.792273 -2.25771
thorax 10.5169 -0.849134 -1.60576
lowerneck 13.4777 1.40402 -11.9012
upperneck -25.3655 1.57122 13.0539
head -10.502 -0.0288456 6.69277
rclavicle -3.93097e-014 -5.52621e-014
rhumerus -30.3764 21.8853 -77.4925
rradius 60.3232
rwrist -3.80582
rhand -6.49346 -44.9495
rfingers 7.12502
rthumb 19.3579 -74.006
lclavicle -3.93097e-014 -5.52621e-014
lhumerus -22.1614 -34.7896 80.4538
lradius 62.1572
lwrist -7.64353
lhand -26.8557 -25.8111
lfingers 7.12502
lthumb -0.28069 4.16841
rfemur -32.4585 -2.81642 18.2411
rtibia 10.3751
rfoot 24.1099 -25.7869
rtoes -1.17134
lfemur -42.2495 -2.21058 -20.6879
ltibia 14.0474
lfoot 37.0009 8.82769
ltoes -45.5419
327
root 9.18615 21.4223 19.419 -144.208 -39.6739 -184.614
lowerback -28.3108 -0.490131 -2.06511
upperback -4.95625 -0.639146 -2.22621
thorax 10.0854 -0.704064 -1.61437
lowerneck 13.0226 1.36232 -12.5882
upperneck -25.1474 1.48858 13.4295
head -10.3242 -0.0273407 6.94555
rclavicle 3.54831e-014 -5.36719e-014
rhumerus -30.9025 20.5091 -77.8922
rradius 59.4113
rwrist -4.33597
rhand -6.8194 -45.3001
rfingers 7.12502
rthumb 19.0445 -74.3877
lclavicle 3.54831e-014 -5.36719e-014
lhumerus -20.8041 -34.7384 81.5322
lradius 60.3139
lwrist -7.9058
lhand -25.905 -26.2157
lfingers 7.12502
lthumb 0.637504 3.76312
rfemur -32.1247 -4.04209 18.6859
rtibia 13.6158
rfoot 24.7831 -22.2723
rtoes -4.13456
lfemur -41.4322 -2.52802 -20.7229
ltibia 16.555
lfoot 37.2403 8.20141
ltoes -46.0228
